<svg xmlns="http://www.w3.org/2000/svg" xmlns:xlink="http://www.w3.org/1999/xlink" viewBox="0 0 665.91 859.09"><defs><style>.a{fill:url(#a);}.b{fill:url(#b);}.c{fill:url(#c);}.d{fill:url(#d);}.e{fill:url(#f);}.f{fill:url(#g);}.g{fill:url(#i);}.h{fill:url(#j);}.i{fill:url(#k);}.j{fill:url(#l);}.k{fill:url(#m);}.l{fill:url(#n);}.m{fill:none;}.n{clip-path:url(#o);}.o{clip-path:url(#p);}.p{clip-path:url(#q);}.q{opacity:0.8;}.r{clip-path:url(#r);}.s{mask:url(#s);}.t{clip-path:url(#u);}.u{fill:#ffd147;}.v{mask:url(#v);}.w{clip-path:url(#x);}.x{opacity:0.59;}.y{mask:url(#z);}.z{fill:#fdb917;}.aa{clip-path:url(#ah);}.ab{clip-path:url(#ak);}.ac{clip-path:url(#an);}.ad{opacity:0.37;}.ae{clip-path:url(#ao);}.af{mask:url(#ap);}.ag{mask:url(#as);}.ah{clip-path:url(#au);}.ai{mask:url(#av);}.aj{clip-path:url(#ax);}.ak{mask:url(#ay);}.al{clip-path:url(#ba);}.am{clip-path:url(#bb);}.an{clip-path:url(#bc);}.ao{clip-path:url(#bd);}.ap{clip-path:url(#be);}.aq{mask:url(#bf);}.ar{clip-path:url(#bh);}.as{mask:url(#bl);}.at{clip-path:url(#bn);}.au{filter:url(#bm);}.av{filter:url(#bg);}.aw{filter:url(#az);}.ax{filter:url(#aw);}.ay{filter:url(#at);}.az{filter:url(#aq);}.ba{filter:url(#aa);}.bb{filter:url(#w);}.bc{filter:url(#t);}</style><linearGradient id="a" x1="-493.2" y1="996.22" x2="-492.71" y2="996.22" gradientTransform="matrix(0, -1841.7, -1841.7, 0, 1834993.39, -906851.16)" gradientUnits="userSpaceOnUse"><stop offset="0"/><stop offset="0"/><stop offset="0.05" stop-color="#1e1e1e"/><stop offset="0.16" stop-color="#525252"/><stop offset="0.26" stop-color="#818181"/><stop offset="0.37" stop-color="#a8a8a8"/><stop offset="0.48" stop-color="#c7c7c7"/><stop offset="0.6" stop-color="#e0e0e0"/><stop offset="0.72" stop-color="#f1f1f1"/><stop offset="0.85" stop-color="#fcfcfc"/><stop offset="1" stop-color="#fff"/></linearGradient><linearGradient id="b" x1="-493.08" y1="996" x2="-492.59" y2="996" gradientTransform="matrix(0, -1841.7, -1841.7, 0, 1834602.63, -906417.02)" xlink:href="#a"/><linearGradient id="c" x1="-492.2" y1="995.27" x2="-491.72" y2="995.27" gradientTransform="matrix(-2087.69, 0, 0, 2087.69, -1027141.83, -2077016.21)" xlink:href="#a"/><linearGradient id="d" x1="-492.56" y1="996.02" x2="-492" y2="996.02" gradientTransform="matrix(0, -1841.7, -1841.7, 0, 1833551.73, -905344.13)" xlink:href="#a"/><linearGradient id="f" x1="-492.12" y1="994.77" x2="-491.56" y2="994.77" gradientTransform="matrix(-2087.69, 0, 0, 2087.69, -1028023.98, -2075961.41)" xlink:href="#a"/><linearGradient id="g" x1="-493.2" y1="996.16" x2="-492.71" y2="996.16" gradientTransform="matrix(0, -1841.7, -1841.7, 0, 1835111.63, -907164.56)" xlink:href="#a"/><linearGradient id="i" x1="-493.5" y1="996.55" x2="-493.01" y2="996.55" gradientTransform="matrix(0, -1841.7, -1841.7, 0, 1835616.55, -907918.2)" xlink:href="#a"/><linearGradient id="j" x1="-493.47" y1="996.34" x2="-492.99" y2="996.34" gradientTransform="matrix(0, -1841.7, -1841.7, 0, 1835227.21, -907842.84)" xlink:href="#a"/><linearGradient id="k" x1="-493.56" y1="995.85" x2="-493.08" y2="995.85" gradientTransform="matrix(0, -1841.7, -1841.7, 0, 1834315.19, -908163.67)" xlink:href="#a"/><linearGradient id="l" x1="-491.87" y1="995.71" x2="-491.38" y2="995.71" gradientTransform="matrix(-2087.69, 0, 0, 2087.69, -1026135.36, -2078229.4)" xlink:href="#a"/><linearGradient id="m" x1="-492.11" y1="995.51" x2="-491.63" y2="995.51" gradientTransform="matrix(-2087.69, 0, 0, 2087.69, -1026791.73, -2077518.37)" xlink:href="#a"/><linearGradient id="n" x1="-492.16" y1="995.76" x2="-491.68" y2="995.76" gradientTransform="matrix(-2087.69, 0, 0, 2087.69, -1026999.53, -2078034.25)" xlink:href="#a"/><clipPath id="o"><rect class="m" x="-168.17" y="-7.74" width="831.35" height="866.35"/></clipPath><clipPath id="p"><rect class="m" x="-0.44" y="-288.91" width="1380.43" height="1411.73"/></clipPath><clipPath id="q"><rect class="m" x="-547.72" y="-0.55" width="1711.58" height="1695.01"/></clipPath><clipPath id="r"><rect class="m" x="-600.35" y="-45.2" width="1728.04" height="1701.78"/></clipPath><filter id="t" x="-660.32" y="-106.1" width="1847.98" height="1823.58" filterUnits="userSpaceOnUse" color-interpolation-filters="sRGB"><feFlood flood-color="#fff" result="bg"/><feBlend in="SourceGraphic" in2="bg"/></filter><mask id="s" x="-660.32" y="-106.1" width="1847.98" height="1823.58" maskUnits="userSpaceOnUse"><g class="bc"><rect class="a" x="-616.86" y="-87.5" width="1761.05" height="1786.38" transform="translate(-550.9 1040.49) rotate(-87.96)"/></g></mask><clipPath id="u"><rect class="m" x="49.92" y="277.32" width="870.56" height="865.72"/></clipPath><mask id="v" x="-660.32" y="-106.1" width="1847.98" height="1823.58" maskUnits="userSpaceOnUse"><g class="bb"><rect class="b" x="-616.86" y="-87.5" width="1761.05" height="1786.38" transform="translate(-550.9 1040.49) rotate(-87.96)"/></g></mask><clipPath id="x"><rect class="m" x="253.18" y="473.82" width="870.56" height="865.72"/></clipPath><filter id="aa" x="19.42" y="246.64" width="931.58" height="927.08" filterUnits="userSpaceOnUse" color-interpolation-filters="sRGB"><feFlood flood-color="#fff" result="bg"/><feBlend in="SourceGraphic" in2="bg"/></filter><mask id="z" x="19.42" y="246.64" width="931.58" height="927.08" maskUnits="userSpaceOnUse"><g class="ba"><rect class="f" x="37.42" y="260.06" width="895.58" height="900.24" transform="translate(-241.81 1169.77) rotate(-87.96)"/></g></mask><clipPath id="ah"><rect class="m" x="-455.46" y="-42.51" width="870.56" height="865.72"/></clipPath><clipPath id="ak"><rect class="m" x="-425.72" y="147.12" width="870.56" height="865.72"/></clipPath><clipPath id="an"><rect class="m" x="-596.63" y="582.73" width="870.56" height="865.72"/></clipPath><clipPath id="ao"><rect class="m" x="-208.47" y="61.1" width="870.56" height="865.72"/></clipPath><filter id="aq" x="-370.92" y="-102.26" width="1195.45" height="1192.43" filterUnits="userSpaceOnUse" color-interpolation-filters="sRGB"><feFlood flood-color="#fff" result="bg"/><feBlend in="SourceGraphic" in2="bg"/></filter><mask id="ap" x="-370.92" y="-102.26" width="1195.45" height="1192.43" maskUnits="userSpaceOnUse"><g class="az"><rect class="j" x="-281.16" y="-15.92" width="1015.93" height="1019.75" transform="translate(-301.44 621.96) rotate(-78.96)"/></g></mask><filter id="at" x="-919.67" y="-369.45" width="2366.68" height="2350.28" filterUnits="userSpaceOnUse" color-interpolation-filters="sRGB"><feFlood flood-color="#fff" result="bg"/><feBlend in="SourceGraphic" in2="bg"/></filter><mask id="as" x="-919.67" y="-369.45" width="2366.68" height="2350.28" maskUnits="userSpaceOnUse"><g class="ay"><rect class="k" x="-736.45" y="-204.82" width="2000.24" height="2021.01" transform="translate(-577.6 910.17) rotate(-78.96)"/></g></mask><clipPath id="au"><rect class="m" x="-65.2" y="578.31" width="870.56" height="865.72"/></clipPath><mask id="av" x="-919.67" y="-369.45" width="2366.68" height="2350.28" maskUnits="userSpaceOnUse"><g class="ax"><rect class="l" x="-736.45" y="-204.82" width="2000.24" height="2021.01" transform="translate(-577.6 910.17) rotate(-78.96)"/></g></mask><clipPath id="ax"><rect class="m" x="-329.54" y="629.17" width="870.56" height="865.72"/></clipPath><filter id="az" x="-919.67" y="-369.45" width="2366.68" height="2350.28" filterUnits="userSpaceOnUse" color-interpolation-filters="sRGB"><feFlood flood-color="#fff" result="bg"/><feBlend in="SourceGraphic" in2="bg"/></filter><mask id="ay" x="-919.67" y="-369.45" width="2366.68" height="2350.28" maskUnits="userSpaceOnUse"><g class="aw"><rect class="c" x="-736.45" y="-204.82" width="2000.24" height="2021.01" transform="translate(-577.6 910.17) rotate(-78.96)"/></g></mask><clipPath id="ba"><rect class="m" x="140.87" y="791.08" width="870.56" height="865.72"/></clipPath><clipPath id="bb"><rect class="m" x="-1315.36" y="-139.81" width="958.09" height="998.43"/></clipPath><clipPath id="bc"><rect class="m" x="-974.32" y="-280.03" width="1626.95" height="1259.32" transform="translate(-510.29 188.38) rotate(-89.93)"/></clipPath><clipPath id="bd"><rect class="m" x="-1752.78" y="-131.53" width="1972.51" height="1953.41"/></clipPath><clipPath id="be"><rect class="m" x="-1813.43" y="-182.99" width="1991.48" height="1961.22"/></clipPath><filter id="bg" x="-1882.55" y="-253.17" width="2129.71" height="2101.58" filterUnits="userSpaceOnUse" color-interpolation-filters="sRGB"><feFlood flood-color="#fff" result="bg"/><feBlend in="SourceGraphic" in2="bg"/></filter><mask id="bf" x="-1882.55" y="-253.17" width="2129.71" height="2101.58" maskUnits="userSpaceOnUse"><g class="av"><rect class="d" x="-1832.46" y="-231.74" width="2029.53" height="2058.71" transform="translate(-1585.67 -47.97) rotate(-87.96)"/></g></mask><clipPath id="bh"><rect class="m" x="-829.78" y="415.16" width="1003.28" height="997.7"/></clipPath><filter id="bm" x="-2181.44" y="-556.67" width="2727.49" height="2708.58" filterUnits="userSpaceOnUse" color-interpolation-filters="sRGB"><feFlood flood-color="#fff" result="bg"/><feBlend in="SourceGraphic" in2="bg"/></filter><mask id="bl" x="-2181.44" y="-556.67" width="2727.49" height="2708.58" maskUnits="userSpaceOnUse"><g class="au"><rect class="e" x="-1970.28" y="-366.94" width="2305.18" height="2329.11" transform="translate(-1443.94 -157.7) rotate(-78.96)"/></g></mask><clipPath id="bn"><rect class="m" x="-959.21" y="780.79" width="1003.28" height="997.7"/></clipPath></defs><g class="n"><g class="o"><g class="p"><g class="q"><g class="r"><g class="s"><g class="t"><polygon class="u" points="795.78 280.93 54.05 1021.59 53.97 1142.24 220.59 1142.37 916.31 459.14 916.44 281.02 795.78 280.93"/></g></g><g class="v"><g class="w"><polygon class="u" points="999.04 477.43 257.31 1218.08 257.22 1338.74 423.85 1338.86 1119.57 655.63 1119.7 477.52 999.04 477.43"/></g></g><g class="x"><g class="t"><g class="y"><g class="t"><polygon class="z" points="870.48 280.99 54 1096.28 53.97 1142.24 295.29 1142.42 916.26 533.83 916.44 281.02 870.48 280.99"/></g></g></g></g><g class="v"><g class="w"><polygon class="z" points="1073.73 477.49 257.25 1292.78 257.22 1338.74 498.54 1338.92 1119.51 730.33 1119.7 477.52 1073.73 477.49"/></g></g><g class="v"><g class="aa"><polygon class="z" points="365.09 -38.84 -451.38 776.45 -451.42 822.42 -210.1 822.59 410.87 214 411.06 -38.8 365.09 -38.84"/></g></g><g class="v"><g class="ab"><polygon class="z" points="394.83 150.79 -421.65 966.08 -421.68 1012.05 -180.36 1012.22 440.61 403.63 440.8 150.82 394.83 150.79"/></g></g><g class="v"><g class="ac"><polygon class="z" points="223.92 586.4 -592.55 1394.11 -592.59 1447.66 -351.27 1447.83 269.7 839.24 269.88 586.43 223.92 586.4"/></g></g><g class="ad"><g class="ae"><g class="af"><g class="ae"><polygon class="z" points="612.08 64.76 -204.4 880.05 -204.43 926.02 36.89 926.2 657.86 317.61 658.04 64.8 612.08 64.76"/></g></g></g></g><g class="ag"><g class="ah"><polygon class="z" points="755.35 581.98 -61.13 1397.27 -61.16 1443.23 180.15 1443.41 801.13 834.82 801.31 582.01 755.35 581.98"/></g></g><g class="ai"><g class="aj"><polygon class="z" points="491.01 632.85 -325.47 1448.14 -325.5 1494.1 -84.18 1494.28 536.79 885.69 536.97 632.88 491.01 632.85"/></g></g><g class="ak"><g class="al"><polygon class="z" points="961.42 794.75 144.94 1610.04 144.91 1656.01 386.23 1656.18 1007.2 1047.6 1007.38 794.78 961.42 794.75"/></g></g></g></g></g></g></g><g class="am"><g class="an"><g class="ao"><g class="q"><g class="ap"><g class="aq"><g class="ar"><polygon class="u" points="29.78 419.32 -825.02 1272.88 -825.12 1411.94 -633.1 1412.08 168.69 624.69 168.84 419.42 29.78 419.32"/></g></g><g class="aq"><g class="ar"><polygon class="z" points="115.86 419.38 -825.08 1358.96 -825.12 1411.94 -547.01 1412.14 168.63 710.77 168.84 419.42 115.86 419.38"/></g></g><g class="as"><g class="at"><polygon class="z" points="-13.57 785.02 -954.52 1724.6 -954.56 1777.57 -676.45 1777.77 39.19 1076.4 39.4 785.05 -13.57 785.02"/></g></g></g></g></g></g></g></svg>